#usda 1.0
(
	doc = "Clay::MeshStreamUSD 20230706"
	defaultPrim = "node_0"
	metersPerUnit = 1
	upAxis = "Z"
)
def Xform "node_0"
{
	def Mesh "geometry_0"
	{
		int[] faceVertexCounts = [3, 3, 3, 3, 3, 3, 3, 3, 3, 3, 3, 3, 3, 3, 3, 3, 3, 3, 3, 3, 3, 3, 3, 3, 3, 3, 3, 3, 3, 3, 3, 3, 3, 3, 3, 3]
		int[] faceVertexIndices = [0, 1, 2, 0, 2, 3, 0, 3, 4, 5, 6, 7, 5, 7, 8, 5, 8, 9, 10, 11, 12, 10, 12, 13, 10, 13, 14, 15, 16, 17, 15, 17, 18, 15, 18, 19, 20, 21, 22, 20, 22, 23, 20, 23, 24, 25, 26, 27, 25, 27, 28, 25, 28, 29, 30, 31, 32, 30, 32, 33, 30, 33, 34, 35, 36, 37, 35, 37, 38, 35, 38, 39, 40, 41, 42, 40, 42, 43, 40, 43, 44, 45, 46, 47, 45, 47, 48, 45, 48, 49, 50, 51, 52, 50, 52, 53, 50, 53, 54, 55, 56, 57, 55, 57, 58, 55, 58, 59]
		point3f[] points = [(0.30902, 0.30902, 0.30902), (0, 0.5, 0.19098), (-0.30902, 0.30902, 0.30902), (-0.19098, 0, 0.5), (0.19098, 0, 0.5), (-0.30902, -0.30902, 0.30902), (0, -0.5, 0.19098), (0.30902, -0.30902, 0.30902), (0.19098, 0, 0.5), (-0.19098, 0, 0.5), (0.30902, -0.30902, -0.30902), (0, -0.5, -0.19098), (-0.30902, -0.30902, -0.30902), (-0.19098, 0, -0.5), (0.19098, 0, -0.5), (-0.30902, 0.30902, -0.30902), (0, 0.5, -0.19098), (0.30902, 0.30902, -0.30902), (0.19098, 0, -0.5), (-0.19098, 0, -0.5), (0, 0.5, 0.19098), (0.30902, 0.30902, 0.30902), (0.5, 0.19098, 0), (0.30902, 0.30902, -0.30902), (0, 0.5, -0.19098), (0, 0.5, -0.19098), (-0.30902, 0.30902, -0.30902), (-0.5, 0.19098, 0), (-0.30902, 0.30902, 0.30902), (0, 0.5, 0.19098), (0, -0.5, 0.19098), (-0.30902, -0.30902, 0.30902), (-0.5, -0.19098, 0), (-0.30902, -0.30902, -0.30902), (0, -0.5, -0.19098), (0, -0.5, -0.19098), (0.30902, -0.30902, -0.30902), (0.5, -0.19098, 0), (0.30902, -0.30902, 0.30902), (0, -0.5, 0.19098), (0.30902, 0.30902, 0.30902), (0.19098, 0, 0.5), (0.30902, -0.30902, 0.30902), (0.5, -0.19098, 0), (0.5, 0.19098, 0), (0.30902, -0.30902, -0.30902), (0.19098, 0, -0.5), (0.30902, 0.30902, -0.30902), (0.5, 0.19098, 0), (0.5, -0.19098, 0), (-0.30902, 0.30902, -0.30902), (-0.19098, 0, -0.5), (-0.30902, -0.30902, -0.30902), (-0.5, -0.19098, 0), (-0.5, 0.19098, 0), (-0.30902, -0.30902, 0.30902), (-0.19098, 0, 0.5), (-0.30902, 0.30902, 0.30902), (-0.5, 0.19098, 0), (-0.5, -0.19098, 0)]
		texCoord2f[] primvars:st = [(0.09789, 0.09789), (0.71592, 0), (1, 0.55754), (0.55754, 1), (0, 0.71592), (0.09789, 0.09789), (0.71592, 0), (1, 0.55754), (0.55754, 1), (0, 0.71592), (0.09789, 0.09789), (0.71592, 0), (1, 0.55754), (0.55754, 1), (0, 0.71592), (0.09789, 0.09789), (0.71592, 0), (1, 0.55754), (0.55754, 1), (0, 0.71592), (0.09789, 0.09789), (0.71592, 0), (1, 0.55754), (0.55754, 1), (0, 0.71592), (0.09789, 0.09789), (0.71592, 0), (1, 0.55754), (0.55754, 1), (0, 0.71592), (0.09789, 0.09789), (0.71592, 0), (1, 0.55754), (0.55754, 1), (0, 0.71592), (0.09789, 0.09789), (0.71592, 0), (1, 0.55754), (0.55754, 1), (0, 0.71592), (0.09789, 0.09789), (0.71592, 0), (1, 0.55754), (0.55754, 1), (0, 0.71592), (0.09789, 0.09789), (0.71592, 0), (1, 0.55754), (0.55754, 1), (0, 0.71592), (0.09789, 0.09789), (0.71592, 0), (1, 0.55754), (0.55754, 1), (0, 0.71592), (0.09789, 0.09789), (0.71592, 0), (1, 0.55754), (0.55754, 1), (0, 0.71592)]
		uniform token subdivisionScheme = "none"
	}
}
